<svg width="18" height="15" viewBox="0 0 18 15" fill="none" xmlns="http://www.w3.org/2000/svg">
<path fill-rule="evenodd" clip-rule="evenodd" d="M5.24997 -2.39111H16.5C16.6989 -2.39111 16.8896 -2.3121 17.0303 -2.17144C17.171 -2.03079 17.25 -1.84003 17.25 -1.64111V9.60889C17.25 9.8078 17.171 9.99856 17.0303 10.1392C16.8896 10.2799 16.6989 10.3589 16.5 10.3589C16.3011 10.3589 16.1103 10.2799 15.9696 10.1392C15.829 9.99856 15.75 9.8078 15.75 9.60889V0.168887L2.02997 13.8889C1.88779 14.0214 1.69975 14.0935 1.50545 14.0901C1.31114 14.0866 1.12576 14.0079 0.988347 13.8705C0.850934 13.7331 0.772222 13.5477 0.768794 13.3534C0.765365 13.1591 0.837489 12.9711 0.969969 12.8289L14.69 -0.891113H5.24997C5.05106 -0.891113 4.86029 -0.970131 4.71964 -1.11078C4.57899 -1.25144 4.49997 -1.4422 4.49997 -1.64111C4.49997 -1.84003 4.57899 -2.03079 4.71964 -2.17144C4.86029 -2.3121 5.05106 -2.39111 5.24997 -2.39111Z" fill="#079211"/>
</svg>
